<?xml version="1.0" encoding="UTF-8"?>
<svg width="25px" height="25px" viewBox="0 0 25 25" version="1.1" xmlns="http://www.w3.org/2000/svg" xmlns:xlink="http://www.w3.org/1999/xlink">
    <!-- Generator: Sketch 46.2 (44496) - http://www.bohemiancoding.com/sketch -->
    <title>Shape</title>
    <desc>Created with Sketch.</desc>
    <defs></defs>
    <g id="Page-1" stroke="none" stroke-width="1" fill="none" fill-rule="evenodd">
        <g id="Desktop-HD" transform="translate(-165.000000, -414.000000)" fill-rule="nonzero" fill="#16BEFF">
            <g id="Group-Copy-2" transform="translate(151.000000, 395.000000)">
                <g id="baseline-comment-24px" transform="translate(14.000000, 19.000000)">
                    <path d="M24.9875,2.5 C24.9875,1.125 23.875,0 22.5,0 L2.5,0 C1.125,0 0,1.125 0,2.5 L0,17.5 C0,18.875 1.125,20 2.5,20 L20,20 L25,25 L24.9875,2.5 Z M20,15 L5,15 L5,12.5 L20,12.5 L20,15 Z M20,11.25 L5,11.25 L5,8.75 L20,8.75 L20,11.25 Z M20,7.5 L5,7.5 L5,5 L20,5 L20,7.5 Z" id="Shape"></path>
                </g>
            </g>
        </g>
    </g>
</svg>